/* XPM */
static char *_fa2e35340dd4683d1896ce6c13b99c1kEHKTp4Q6gdJU85k[] = {
/* columns rows colors chars-per-pixel */
"64 64 5 1 ",
"  c #3C6D19",
". c #605E61",
"X c #6C696D",
"o c #508E25",
"O c #847E87",
/* pixels */
"XXXXXXXXXXXX...OOOOOOOOOOOOOOOOOXXXXXXXXX....XOOOOOOOOo  OOXXXXX",
"XXXXXXXXXXXX...OOOOOOOOOOOOOOOOOOXXXXXXX.OOOOOOOOOOOOoo OOXXXXXX",
"XXXXXXXXXXXXX...OOOOOOOOOOOOOOOOOOOOOOOOOOOOOOOOOOOOo   OOXXXXXX",
"XXXXXXXXXXXXX...OOOOOOOOOOOOOOOOOOOOXXXXXX...OOOOOOo  OOOOXXXXXX",
"XXXXXXXXXXXXX...OOOOOOOOOOOOOOOOOOOXXXXXXXXX......O OOOOOOXXXXXX",
"XXXXXXXXXXXX....OOOOOOOOOOOOOOOOOOXXXXXXXXXX.......OOOOOOOXXXXXX",
"XXXXXXXXXXX.....OOOOOOOOOOOOOOOOOXXXXXXXXXXXX.......OOOOOOXXXXXX",
"XXXXXXXXXX......OOOOOOOOOOOOOOOOOXXXXXXXXXXXXXX.....OOOOOOXXXXXX",
"XXXXXXXXX......OOOOOOOOOOOOOOOOOOXXXXXXXXXXXXXX.....OOOOOOOXXXXX",
"XXXXX.........OOOOOOOOOOOOOOOOOOOXXXXXXXXXXXXXX.....OOOOOOOOOOXX",
"XX........OOOOOOOOOOOOOOOOOOOOOOOXXXXXXXXXXXXXX.....OOOOOOOOOOOX",
"OOOOOOOOOOOOOOOOOOOOOOOOOOOOOOOOOXXXXXXXXXXXXXX.....OOOOOOOOOOOO",
"OOOOOOOOOOOOOOOOOOOOOOOOOOOOOOOOOXXXXXXXXXXXXXXX....OOOOOOOOOOOO",
"OOOOOOOOOOOOOOOOOOOOOOOOOOOOOOOOOXXXXXXXXXXXXXX.....OOOOOOOOOOOO",
"OOOOOOOOOOOOOOOOOOOOOOOOOOOOOOOOOOXXXXXXXXXXXX.....OOOOOOOOOOOOO",
"OOOOOOOOOOOOOOOOOOOOOOOOOOOOOOOOOOOXXXXXXXXXX......OOOOOOOOOOOOO",
"OOOOOOOOOOOOOOOOOOOOOOOOOOOOOOOOOOOOOXXXXXXX......OOOOOOOOOOOOOO",
"OOOOOOOOOOOOO OOOOOOOOOOOOOOOOOOOOOOOOXXXXX......OOOOOOOOOOOOOOO",
"OOOOOOOOOOOOo OOOOOOOXXXXX.........OOOOOO.....OOOOOOOOOOOOOOOOOO",
"OOOOOOOOOOOoo OOOOOOXXXXXXXXXX......OOOOOOOOOOOOOOOOOOOOOOOOOOOO",
"OOOOOOOOOOOo  OOOOOXXXXXXXXXXXXX......OOOOOOOOOOOOOOOOOOOOOOOOOO",
"OOOOOOOOOoo  OOOOOXXXXXXXXXXXXXX........OOOOOOOOOOOOOOOOOOOOOOOO",
"OOOOOOOOoo  OOOOOXXXXXXXXXXXXXXXX........OOOOOOOOOOOOOOOOOOOOOOO",
"OOOOOOOoo  OOOOOXXXXXXXXXXXXXXXXXX........OOOOOOOOOOOOOOOXXXXX..",
"....OOoo  OOOOOOXXXXXXXXXXXXXXXXXXX.......OOOOOOOOOOOOOOXXXXXXXX",
"X....Oo  OOOOOOOXXXXXXXXXXXXXXXXXXX.......OOOOOOOOOOOOOXXXXXXXXX",
"X.....OOOOOOOOOOXXXXXXXXXXXXXXXXXXX.......OOOOOOOOOOOOXXXXXXXXXX",
"XX....OOOOOOOOOOXXXXXXXXXXXXXXXXXXX.......OOOOOOoo OOOXXXXXXXXXX",
"XXX...OOOOOOOOOOOXXXXXXXXXXXXXXXXXX.......OOOOoo  OOOOXXXXXXXXXX",
"XXX...OOOOOOOOOOOOXXXXXXXXXXXXXXXXX.......OOOOo  OOOOOXXXXXXXXXX",
"XXX...OOOOOOOOOOOOOXXXXXXXXXXXXXXX.......OOOOOo OOOOOOXXXXXXXXXX",
"XXX...OOOOOOOOOOOOOOXXXXXXXXXXXXX.......OOOOOOOOOOOOOOXXXXXXXXXX",
"XXX...OOOOOOOOOOOOOOOXXXXXXXXXXX.......OOOOOOOOOOOOOOOXXXXXXXXXX",
"XXX...OOOOOOOOOOOOOOOOXXXXXXXX........OOOOOOOOOOOOOOOOOXXXXXXXXX",
"XXX...OOOOOOOOOOOOOOOOOOXX..........OOOOOOOOOOOOOOOOOOOOXXXXXXXX",
"XX....OOOOOOOOOOOOOOOOOOOOOOOOOOOOOOOOOOOOOOOOOOOOOOOOOOOXXXXXXX",
"X....OOOOOOOOOOOOOOOOOOOOOOOOOOOOOOOOOOOOOOOOOOOOOOOOOOOOOXXXXXX",
"....OOOOOOOOOOOOOOOOOOOOOOOOOOOOOOOOOOOOOOOOOOOOOOOOOOOOOOOXXXXX",
"OOOOOOOOOOOOOOOOOOOOOOOOOOOOOOOOOOOOOOOOOOOOOOXXXXXXXOOOOOOOOOOO",
"OOOOOOOOOOOOOOOOOOOOOOOOOOOOOOOOOOOOOOOOOOOOOXXXXXXXX.....OOOOOO",
"OOOOOOOOOOOOOXXX...OOOOOOOOOOOOOOOOOOOOOOOOOXXXXXXXXXXX......OOO",
"OOOOOOOOOOOXXXXXXX.......OOOOOOOOOOOOOOOOOXXXXXXXXXXXXXX......OO",
"OOOOOOOOXXXXXXXXXXXXX.....OOOOOOOOOOOOOOOXXXXXXXXXXXXXXXX......O",
"OOOOOOOXXXXXXXXXXXXXXXX....OOOOOOOOOOOOOXXXXXXXXXXXXXXXXXXXX....",
"OOOOOOXXXXXXXXXXXXXXXXXX....OOOOOOOOOOOOXXXXXXXXXXXXXXXXXXXXX...",
"OOOOOOXXXXXXXXXXXXXXXXXXX...OOOoOOOOOOOOXXXXXXXXXXXXXXXXXXXXX...",
"OOOOOOXXXXXXXXXXXXXXXXXXX....Ooo OOOOOOOXXXXXXXXXXXXXXXXXXXXX...",
"OOOOOOXXXXXXXXXXXXXXXXXXXX...Ooo OOOOOOOOXXXXXXXXXXXXXXXXXXXX...",
"OOOOOOXXXXXXXXXXXXXXXXXXX....Oo  OOOOOOOOOXXXXXXXXXXXXXXXXXXX...",
"OOOOOOXXXXXXXXXXXXXXXXXXX...Ooo OOOOOOOOOOXXXXXXXXXXXXXXXXXXX...",
"OOOOOOXXXXXXXXXXXXXXXXXX....Oo  OOOOOOOOOOOXXXXXXXXXXXXXXXX.....",
"OOOOOOOXXXXXXXXXXXXXXXXX...Ooo OOOOOOOOOOOOOXXXXXXXXXXXXXX.....O",
"OOOOOOOOXXXXXXXXXXXXXXX...Ooo  OOOOOOOOOOOOOOOXXXXXXXXXX......OO",
"OOOOOOOOOOXXXXXXXXXXX....OOo   OOXXXXXXXXXOOOOOOOOOOOOOOOOOOOOOO",
"OOOOOOOOOOOOOXXXX.....OOOOoo  OOXXXXXXXXXX.....OOOOOOOOOOOOOOOOO",
"OOOOOOOOOOOOOOOOOOOOOOOOooo  OXXXXXXXXXXXXXXX.....OOOOOOOOOOOOOO",
"OOOOOOOOOOOOOOOOOOOOOOooo   OXXXXXXXXXXXXXXXXX.....OOOOOOOOOOOOO",
"XXXX.....OOOOOOOOOOOooo   OOXXXXXXXXXXXXXXXXXXXX....OOOOOOOOOOOO",
"XXXXXXX....OOOOOOOOO    OOOOXXXXXXXXXXXXXXXXXXXXX...OOOOOOOOOOOX",
"XXXXXXXXX...OOOOOOO  OOOOOOOXXXXXXXXXXXXXXXXXXXXX...OOOOOOOOOXXX",
"XXXXXXXXXXX..OOOOOOOOOOOOOOOXXXXXXXXXXXXXXXXXXXXX...OOOOOOOOXXXX",
"XXXXXXXXXXX...OOOOOOOOOOOOOOXXXXXXXXXXXXXXXXXXXXX...OOOOOOOOXXXX",
"XXXXXXXXXXX....OOOOOOOOOOOOOXXXXXXXXXXXXXXXXXXXXX...OOOOOoOXXXXX",
"XXXXXXXXXXXX...OOOOOOOOOOOOOOXXXXXXXXXXXXXXXX.......OOOOo OXXXXX"
};
