/* XPM */
static char *b6c1702078da480af876bb7e47908174GQAqkdXQ9XT6GrOn[] = {
/* columns rows colors chars-per-pixel */
"64 64 25 1 ",
"  c #222034",
". c #45283C",
"X c #3C6D19",
"o c #605E61",
"O c #686569",
"+ c #6C696D",
"@ c #706C71",
"# c #AC3232",
"$ c #8F563B",
"% c #508E25",
"& c #FBF236",
"* c #C69362",
"= c #1F478E",
"- c #3069CE",
"; c #3273E7",
": c #3073EB",
"> c #3779EF",
", c #847E87",
"< c #4782EB",
"1 c #4984EF",
"2 c #D78686",
"3 c #DFB48B",
"4 c #EEC39A",
"5 c #F3DEDE",
"6 c white",
/* pixels */
"++++++++++++ooo,,,,,,,,,,,,,,,,,+++++++++oooo+,,,,,,,,%XX,,+++++",
"++++++++++++ooo,,,,,,,,,,,,,,,,,,+++++++o,,,,,,,,,,,,%%X,,++++++",
"+++++++++++++ooo,,,,,,,,,,,,,,,,,,,,,,,,,,,,,,,,,,,,%XXX,,++++++",
"+++++++++++++ooo,,,,,,,,,,,,,,,,,,,,++++++ooo,,,,,,%XX,,,,++++++",
"+++++++++++++ooo,,,,,,,,,,,,,,,,,,,+++++++++oooooo,X,,,,,,++++++",
"++++++++++++oooo,,,,,,,,,,,,,,,,,,++++++++++ooooooo,,,,,,,++++++",
"+++++++++++ooooo,,,,,,,,,,,,,,,,,++++++++++++ooooooo,,,,,,++++++",
"++++++++++oooooo,,,,,,,,,,,,,,,,,++++++++++++++ooooo,,,,,,++++++",
"+++++++++oooooo,,,,,,,,,,,,,,,,,,++++++++++++++ooooo,,,,,,,+++++",
"+++++ooooooooo,,,,,,,,,,,,,,,,,,,++++++++++++++ooooo,,,,,,,,,,++",
"++oooooooo,,,,,,,,,,,,,,,,,,,,,,,++++++++++++++ooooo,,,,,,,,,,,+",
",,,,,,,,,,,,,,,,,,,,,,,,,,,,>>>>>>>>+++++++++++ooooo,,,,,,,,,,,,",
",,,,,,,,,,,,,,,,,,,,,,,,,,>>>>>>>>>>>>>+++++++++oooo,,,,,,,,,,,,",
",,,,,,,,,,,,,,,,,,,,,,,,,>><<>>>>>>>>:>>+++++++ooooo,,,,,,,,,,,,",
",,,,,,,,,,,,,,,,,,,,,,,,>><<<<>>>>>>:::>>+++++ooooo,,,,,,,,,,,,,",
",,,,,,,,,,,,,,,,,,,,,,,,>><<<>>>>>>>::::>++++oooooo,,,,,,,,,,,,,",
",,,,,,,,,,,,,,,,,,,,,,,>><<<<>>>>>>>>:::>+++oooooo,,,,,,,,,,,,,,",
",,,,,,,,,,,,,X,,,,,,,,>>><<<>>>>>>>>>:::>>+oooooo,,,,,,,,,,,,,,,",
",,,,,,,,,,,,%X,,,,,,,+>><<<<>>>>>>>>>::::>>ooo,,,,,,,,,,,,,,,,,,",
",,,,,,,,,,,%%X,,,,,,++><<<<>>>>>>>>>>>:::>>>,,,,,,,,,,,,,,,,,,,,",
",,,,,,,,,,,%XX,,,,,++><<<<<>>>>>>>>>>>::::>>,,,,,,,,,,,,,,,,,,,,",
",,,,,,,,,%%XX,,,,,++><<<<<>>>>>>>>>>>>>:::>>>,,,,,,,,,,,,,,,,,,,",
",,,,,,,,%%XX,,,,,+>><<<<>>>>&&&&&>>>>>>::::>>>,,,,,,,,,,,,,,,,,,",
",,,,,,,%%XX,,,,,+>><<<<>>>&&&444&&&&&>>>::::>>>>,,,,,,,,,+++++oo",
"oooo,,%%XX,,,,,,+>>><<>>&&&$44444444&&>>>::::>>>>,,,,,,,++++++++",
"+oooo,%XX,,,,,,,+>>>>>&&&$$4564445644&&&&>::::>>>,,,,,,+++++++++",
"+ooooo,,,,,,,,,,++&&&&&$$$44#2444#2444$$&&>::>>>>,,,,,++++++++++",
"++oooo,,,,,,,,,,+++++&$$$34444444444443$=&&>>>>>%%X,,,++++++++++",
"+++ooo,,,,,,,,,,,+++++&$$34444444444443==&&&&>>%XX,,,,++++++++++",
"+++ooo,,,,,,,,,,,,++++&$==444444444444===&,,,,%XX,,,,,++++++++++",
"+++ooo,,,,,,,,,,,,,++++&===444**444444===&,,,,%X,,,,,,++++++++++",
"+++ooo,,,,,,,,,,,,,,++++&&=4444444444===&>>,,,,,,,,,,,++++++++++",
"+++ooo,,,,,,,,,,,,,,,+++>>&=33444443==&&::>,,,,,,,,,,,++++++++++",
"+++ooo,,,,,,,,,,,,,,,,+>><>&33333333&&>::::,,,,,,,,,,,,+++++++++",
"+++ooo,,,,,,,,,,,,,,,,,><<<>&333333&>>>>:::>,,,,,,,,,,,,++++++++",
"++oooo,,,,,,,,,,,,,,,,><<<<<>&33333&>>>>:::>,,,,,,,,,,,,,+++++++",
"+oooo,,,,,,,,,,,,,,,,,><<<<<>>&333&>>>>>::::>,,,,,,,,,,,,,++++++",
"oooo,,,,,,,,,,,,,,,,,><<<<<<>>>>3>>>>>>>>:::>>,,,,,,,,,,,,,+++++",
",,,,,,,,,,,,,,,,,,,,,><<<<<<>>>>;1>>>>>>>:::>>+++++++,,,,,,,,,,,",
",,,,,,,,,,,,,,,,,,,,><<<<<<>>>>>;1>>>>>>>::::>+++++++ooooo,,,,,,",
",,,,,,,,,,,,,+++ooo>><<<<<<>>>>;;1>>>>>>>>:::>>++++++++oooooo,,,",
",,,,,,,,,,,+++++++>><<<<<<>>>>>. 1>>>>>>>>::::>+++++++++oooooo,,",
",,,,,,,,+++++++++>><<<<<<<>>>>> .1>>>:>>>>>:::>>>++++++++oooooo,",
",,,,,,,+++++++++>>>><<<<<>>>>>>;;1>>:::>+>>>:>>444++++++++++oooo",
",,,,,,+++++++++>444>><<<>>>>>>>;11>>:::>+>>>>>44444++++++++++ooo",
",,,,,,+++++++++44444>><>>>>>>>>. 1>>:::>++>>>>44444++++++++++ooo",
",,,,,,+++++++++44444>>>++>>>>>; .1>>:::>+++>>>44444++++++++++ooo",
",,,,,,+++++++++44444>>+++>-->>;;11>::-->,++++>>444+++++++++++ooo",
",,,,,,++++++++++444>+++++>>>>>;;1>>:::>>,,+++++++++++++++++++ooo",
",,,,,,+++++++++++++++++++>>>>>;;1>>>:>>>>,+++++++++++++++++++ooo",
",,,,,,++++++++++++++++++o@>>>;;;1>>@@@@OO,,++++++++++++++++ooooo",
",,,,,,,+++++++++++++++++@@@@@@@@@@@@@@@OO,,,++++++++++++++ooooo,",
",,,,,,,,+++++++++++++++o@@@@@@@@@@@@@@@OO,,,,,++++++++++oooooo,,",
",,,,,,,,,,+++++++++++ooo@@@@@@@@@@@@@@@OOO,,,,,,,,,,,,,,,,,,,,,,",
",,,,,,,,,,,,,++++ooooo,,@@@@@@@@@@@@@@@@OOooooo,,,,,,,,,,,,,,,,,",
",,,,,,,,,,,,,,,,,,,,,,,,@@@@@@@@@@@@@@@@OO+++ooooo,,,,,,,,,,,,,,",
",,,,,,,,,,,,,,,,,,,,,,%%@@@@@@@@@@@@@@@@OOO+++ooooo,,,,,,,,,,,,,",
"++++ooooo,,,,,,,,,,,%%%@@@@@@@@O+++@@@@@@OO+++++oooo,,,,,,,,,,,,",
"+++++++oooo,,,,,,,,,XXX@@@@@@@@O+++@@@@@@OO++++++ooo,,,,,,,,,,,+",
"+++++++++ooo,,,,,,,XX,,@@@@@@OO+++++@@@@@OO++++++ooo,,,,,,,,,+++",
"+++++++++++oo,,,,,,,,,,@@$$$$O+++++++@@$$$$++++++ooo,,,,,,,,++++",
"+++++++++++ooo,,,,,,,,,,$$$$$$+++++++@$$$$$$+++++ooo,,,,,,,,++++",
"+++++++++++oooo,,,,,,,,,$$$$$$++++++++$$$$$$+++++ooo,,,,,%,+++++",
"++++++++++++ooo,,,,,,,,,,$$$$++++++++++$$$$++ooooooo,,,,%X,+++++"
};
